<svg xmlns="http://www.w3.org/2000/svg" xmlns:xlink="http://www.w3.org/1999/xlink" viewBox="0 0 1000 800"><defs><style>.cls-1{mask:url(#mask);filter:url(#luminosity-noclip-4);}.cls-15,.cls-2,.cls-4,.cls-6{mix-blend-mode:multiply;}.cls-2{fill:url(#linear-gradient);}.cls-3{mask:url(#mask-2);filter:url(#luminosity-noclip-5);}.cls-4{fill:url(#linear-gradient-2);}.cls-5{mask:url(#mask-3);filter:url(#luminosity-noclip-6);}.cls-6{fill:url(#linear-gradient-3);}.cls-7{isolation:isolate;}.cls-8{fill:url(#linear-gradient-4);}.cls-9{fill:url(#linear-gradient-5);}.cls-10{mask:url(#mask-4);}.cls-11{opacity:0.7;fill:url(#linear-gradient-6);}.cls-12{fill:#303030;}.cls-13{fill:url(#linear-gradient-7);}.cls-14{mask:url(#mask-5);}.cls-15{fill:url(#linear-gradient-8);}.cls-16{fill:#787878;}.cls-17{fill:url(#linear-gradient-9);}.cls-18{mask:url(#mask-6);}.cls-19{opacity:0.2;fill:url(#linear-gradient-10);}.cls-20{filter:url(#luminosity-noclip-3);}.cls-21{filter:url(#luminosity-noclip-2);}.cls-22{filter:url(#luminosity-noclip);}</style><filter id="luminosity-noclip" x="355.62" y="-8592" width="288.76" height="32766" filterUnits="userSpaceOnUse" color-interpolation-filters="sRGB"><feFlood flood-color="#fff" result="bg"/><feBlend in="SourceGraphic" in2="bg"/></filter><mask id="mask" x="355.62" y="-8592" width="288.76" height="32766" maskUnits="userSpaceOnUse"><g class="cls-22"/></mask><linearGradient id="linear-gradient" x1="500" y1="797.5" x2="500" y2="788.83" gradientUnits="userSpaceOnUse"><stop offset="0" stop-color="#fff"/><stop offset="0.01" stop-color="#f6f6f6"/><stop offset="0.05" stop-color="#c8c8c8"/><stop offset="0.09" stop-color="#9d9d9d"/><stop offset="0.14" stop-color="#777"/><stop offset="0.2" stop-color="#575757"/><stop offset="0.25" stop-color="#3b3b3b"/><stop offset="0.32" stop-color="#252525"/><stop offset="0.4" stop-color="#141414"/><stop offset="0.49" stop-color="#090909"/><stop offset="0.63" stop-color="#020202"/><stop offset="1"/></linearGradient><filter id="luminosity-noclip-2" x="26.83" y="-8592" width="946.34" height="32766" filterUnits="userSpaceOnUse" color-interpolation-filters="sRGB"><feFlood flood-color="#fff" result="bg"/><feBlend in="SourceGraphic" in2="bg"/></filter><mask id="mask-2" x="26.83" y="-8592" width="946.34" height="32766" maskUnits="userSpaceOnUse"><g class="cls-21"/></mask><linearGradient id="linear-gradient-2" x1="500" y1="663.65" x2="500" y2="655.85" gradientUnits="userSpaceOnUse"><stop offset="0" stop-color="#1a1a1a"/><stop offset="0.55" stop-color="#0e0e0e"/><stop offset="1"/></linearGradient><filter id="luminosity-noclip-3" x="211.14" y="-8592" width="767.85" height="32766" filterUnits="userSpaceOnUse" color-interpolation-filters="sRGB"><feFlood flood-color="#fff" result="bg"/><feBlend in="SourceGraphic" in2="bg"/></filter><mask id="mask-3" x="211.14" y="-8592" width="767.85" height="32766" maskUnits="userSpaceOnUse"><g class="cls-20"/></mask><linearGradient id="linear-gradient-3" x1="595.07" y1="575.28" x2="595.07" y2="2.5" gradientUnits="userSpaceOnUse"><stop offset="0.2"/><stop offset="0.5" stop-color="#020202"/><stop offset="0.6" stop-color="#090909"/><stop offset="0.68" stop-color="#141414"/><stop offset="0.74" stop-color="#252525"/><stop offset="0.8" stop-color="#3b3b3b"/><stop offset="0.84" stop-color="#575757"/><stop offset="0.89" stop-color="#777"/><stop offset="0.93" stop-color="#9d9d9d"/><stop offset="0.96" stop-color="#c8c8c8"/><stop offset="0.99" stop-color="#f6f6f6"/><stop offset="1" stop-color="#fff"/></linearGradient><linearGradient id="linear-gradient-4" x1="355.62" y1="793.16" x2="644.38" y2="793.16" gradientUnits="userSpaceOnUse"><stop offset="0" stop-color="#313131"/><stop offset="0.07" stop-color="#3b3b3b"/><stop offset="0.16" stop-color="#4e4e4e"/><stop offset="0.27" stop-color="#696969"/><stop offset="0.39" stop-color="gray"/><stop offset="0.65" stop-color="#7c7f80"/><stop offset="0.75" stop-color="#6b6d6e"/><stop offset="0.94" stop-color="#3f3f3f"/><stop offset="1" stop-color="#313131"/></linearGradient><linearGradient id="linear-gradient-5" x1="500" y1="793.9" x2="500" y2="655.74" gradientUnits="userSpaceOnUse"><stop offset="0" stop-color="#525252"/><stop offset="0.16" stop-color="#575757"/><stop offset="0.19" stop-color="#4b4b4b"/><stop offset="0.24" stop-color="#343434"/><stop offset="0.27" stop-color="#3e3e3e"/><stop offset="0.33" stop-color="#595959"/><stop offset="0.39" stop-color="#787878"/><stop offset="0.65" stop-color="#696a6c"/><stop offset="0.76" stop-color="#58585a"/><stop offset="0.98" stop-color="#2b2b2b"/><stop offset="1" stop-color="#262626"/></linearGradient><filter id="luminosity-noclip-4" x="355.62" y="788.83" width="288.76" height="8.67" filterUnits="userSpaceOnUse" color-interpolation-filters="sRGB"><feFlood flood-color="#fff" result="bg"/><feBlend in="SourceGraphic" in2="bg"/></filter><mask id="mask-4" x="355.62" y="788.83" width="288.76" height="8.67" maskUnits="userSpaceOnUse"><g class="cls-1"><path class="cls-2" d="M357.32,788.83h-1.7v3.79a5,5,0,0,0,5,4.88H639.34a5,5,0,0,0,5-4.88v-3.79Z"/></g></mask><linearGradient id="linear-gradient-6" x1="500" y1="797.5" x2="500" y2="788.83" gradientUnits="userSpaceOnUse"><stop offset="0" stop-color="#313131"/><stop offset="0.05" stop-color="#383838"/><stop offset="0.2" stop-color="#434343"/><stop offset="0.41" stop-color="#4a4a4a"/><stop offset="1" stop-color="#4c4c4c"/></linearGradient><linearGradient id="linear-gradient-7" x1="21.01" y1="619.47" x2="978.99" y2="619.47" gradientUnits="userSpaceOnUse"><stop offset="0" stop-color="#4a4a4c"/><stop offset="1" stop-color="#717171"/></linearGradient><filter id="luminosity-noclip-5" x="26.83" y="655.85" width="946.34" height="7.81" filterUnits="userSpaceOnUse" color-interpolation-filters="sRGB"><feFlood flood-color="#fff" result="bg"/><feBlend in="SourceGraphic" in2="bg"/></filter><mask id="mask-5" x="26.83" y="655.85" width="946.34" height="7.81" maskUnits="userSpaceOnUse"><g class="cls-3"><path class="cls-4" d="M973.17,655.85a23.07,23.07,0,0,1-17.34,7.8H44.16a23.07,23.07,0,0,1-17.33-7.8Z"/></g></mask><linearGradient id="linear-gradient-8" x1="500" y1="663.65" x2="500" y2="655.85" gradientUnits="userSpaceOnUse"><stop offset="0"/><stop offset="0.09" stop-color="#0c0c0c"/><stop offset="0.25" stop-color="#2d2d2d"/><stop offset="0.47" stop-color="#636363"/><stop offset="0.73" stop-color="#adadad"/><stop offset="1" stop-color="#fff"/></linearGradient><linearGradient id="linear-gradient-9" x1="148.07" y1="-41.55" x2="851.93" y2="662.3" gradientUnits="userSpaceOnUse"><stop offset="0" stop-color="#f1f2f3"/><stop offset="0.36" stop-color="#ecedee"/><stop offset="0.8" stop-color="#dedfdf"/><stop offset="1" stop-color="#d5d6d6"/></linearGradient><filter id="luminosity-noclip-6" x="211.14" y="2.5" width="767.85" height="572.78" filterUnits="userSpaceOnUse" color-interpolation-filters="sRGB"><feFlood flood-color="#fff" result="bg"/><feBlend in="SourceGraphic" in2="bg"/></filter><mask id="mask-6" x="211.14" y="2.5" width="767.85" height="572.78" maskUnits="userSpaceOnUse"><g class="cls-5"><path class="cls-6" d="M979,25.66V575.28H211.14L783.92,2.5H955.84A23.15,23.15,0,0,1,979,25.66Z"/></g></mask><linearGradient id="linear-gradient-10" x1="595.07" y1="575.28" x2="595.07" y2="2.5" gradientUnits="userSpaceOnUse"><stop offset="0.2" stop-color="#fff"/><stop offset="0.89" stop-color="#fff"/><stop offset="1" stop-color="#fff"/></linearGradient></defs><title>Artboard 1</title><g class="cls-7"><g id="Layer_1" data-name="Layer 1"><path class="cls-8" d="M357.32,788.83h-1.7v3.79a5,5,0,0,0,5,4.88H639.34a5,5,0,0,0,5-4.88v-3.79Z"/><path class="cls-9" d="M639.34,793.9H360.66a5,5,0,0,1-2.92-9l28-19.61A21.87,21.87,0,0,0,395,749.49l9.13-93.75H595.91L605,749.49a21.87,21.87,0,0,0,9.25,15.78l28,19.61A5,5,0,0,1,639.34,793.9Z"/><g class="cls-10"><path class="cls-11" d="M357.32,788.83h-1.7v3.79a5,5,0,0,0,5,4.88H639.34a5,5,0,0,0,5-4.88v-3.79Z"/></g><rect class="cls-12" x="21.01" y="2.5" width="957.98" height="660.32" rx="23.16"/><path d="M979,26.48v614a23.15,23.15,0,0,1-23.15,23.15H44.17A23.16,23.16,0,0,1,21,640.5v-614A23.15,23.15,0,0,1,44.17,3.33H955.84A23.14,23.14,0,0,1,979,26.48Z"/><path class="cls-13" d="M979,575.28v65.23a23.15,23.15,0,0,1-23.16,23.14H44.16A23.15,23.15,0,0,1,21,640.51V575.28Z"/><g class="cls-14"><path class="cls-15" d="M973.17,655.85a23.07,23.07,0,0,1-17.34,7.8H44.16a23.07,23.07,0,0,1-17.33-7.8Z"/></g><path class="cls-12" d="M939.84,42.85H60.16a1.72,1.72,0,0,0-1.71,1.72V575.28h2.6V45.47H939V575.28h2.6V44.57A1.72,1.72,0,0,0,939.84,42.85Z"/><rect class="cls-16" x="21.01" y="575.28" width="957.99" height="2.88"/><rect class="cls-17" x="61.05" y="45.47" width="877.89" height="529.81"/><g class="cls-18"><path class="cls-19" d="M979,25.66V575.28H211.14L783.92,2.5H955.84A23.15,23.15,0,0,1,979,25.66Z"/></g></g></g></svg>