<svg id="Layer_1" data-name="Layer 1" xmlns="http://www.w3.org/2000/svg" xmlns:xlink="http://www.w3.org/1999/xlink" viewBox="0 0 1000 800"><defs><style>.cls-1{mask:url(#mask);filter:url(#luminosity-noclip-3);}.cls-2,.cls-4{mix-blend-mode:multiply;}.cls-2{fill:url(#linear-gradient);}.cls-3{mask:url(#mask-2);filter:url(#luminosity-noclip-4);}.cls-4{fill:url(#linear-gradient-2);}.cls-5{fill:#c7c7c7;}.cls-6{fill:url(#linear-gradient-3);}.cls-7{fill:url(#linear-gradient-4);}.cls-8{fill:url(#linear-gradient-5);}.cls-9{fill:url(#linear-gradient-6);}.cls-10{fill:#3e3e3e;}.cls-11{fill:url(#linear-gradient-7);}.cls-12{fill:url(#linear-gradient-8);}.cls-13{fill:url(#linear-gradient-9);}.cls-14{fill:url(#linear-gradient-10);}.cls-15{fill:url(#linear-gradient-11);}.cls-16{fill:url(#linear-gradient-12);}.cls-17{fill:url(#linear-gradient-13);}.cls-18{mask:url(#mask-3);}.cls-19{fill:url(#linear-gradient-14);}.cls-20{mask:url(#mask-4);}.cls-21{opacity:0.2;fill:url(#linear-gradient-15);}.cls-22{filter:url(#luminosity-noclip-2);}.cls-23{filter:url(#luminosity-noclip);}</style><filter id="luminosity-noclip" x="322.95" y="-8592" width="360.29" height="32766" filterUnits="userSpaceOnUse" color-interpolation-filters="sRGB"><feFlood flood-color="#fff" result="bg"/><feBlend in="SourceGraphic" in2="bg"/></filter><mask id="mask" x="322.95" y="-8592" width="360.29" height="32766" maskUnits="userSpaceOnUse"><g class="cls-23"/></mask><linearGradient id="linear-gradient" x1="503.1" y1="758.49" x2="503.1" y2="-5" gradientUnits="userSpaceOnUse"><stop offset="0"/><stop offset="0.29" stop-color="#020202"/><stop offset="0.43" stop-color="#0a0a0a"/><stop offset="0.53" stop-color="#171717"/><stop offset="0.62" stop-color="#292929"/><stop offset="0.7" stop-color="#414141"/><stop offset="0.77" stop-color="#5e5e5e"/><stop offset="0.84" stop-color="#818181"/><stop offset="0.9" stop-color="#aaa"/><stop offset="0.96" stop-color="#d7d7d7"/><stop offset="1" stop-color="#fff"/></linearGradient><filter id="luminosity-noclip-2" x="303.19" y="-8592" width="393.62" height="32766" filterUnits="userSpaceOnUse" color-interpolation-filters="sRGB"><feFlood flood-color="#fff" result="bg"/><feBlend in="SourceGraphic" in2="bg"/></filter><mask id="mask-2" x="303.19" y="-8592" width="393.62" height="32766" maskUnits="userSpaceOnUse"><g class="cls-22"/></mask><linearGradient id="linear-gradient-2" x1="500" y1="795" x2="500" y2="6.67" gradientUnits="userSpaceOnUse"><stop offset="0.2"/><stop offset="0.5" stop-color="#020202"/><stop offset="0.6" stop-color="#090909"/><stop offset="0.68" stop-color="#141414"/><stop offset="0.74" stop-color="#252525"/><stop offset="0.8" stop-color="#3b3b3b"/><stop offset="0.84" stop-color="#575757"/><stop offset="0.89" stop-color="#777"/><stop offset="0.93" stop-color="#9d9d9d"/><stop offset="0.96" stop-color="#c8c8c8"/><stop offset="0.99" stop-color="#f6f6f6"/><stop offset="1" stop-color="#fff"/></linearGradient><linearGradient id="linear-gradient-3" x1="304.69" y1="400.73" x2="310.41" y2="400.73" gradientUnits="userSpaceOnUse"><stop offset="0" stop-color="#666"/><stop offset="0.05" stop-color="#717171"/><stop offset="0.33" stop-color="#a8a8a8"/><stop offset="0.57" stop-color="#cfcfcf"/><stop offset="0.75" stop-color="#e7e7e7"/><stop offset="0.87" stop-color="#f0f0f0"/><stop offset="0.94" stop-color="#f6f6f6"/><stop offset="1" stop-color="#fff"/></linearGradient><linearGradient id="linear-gradient-4" x1="687.55" y1="400.77" x2="693.23" y2="400.77" gradientUnits="userSpaceOnUse"><stop offset="0" stop-color="#fff"/><stop offset="0.06" stop-color="#f6f6f6"/><stop offset="0.13" stop-color="#f0f0f0"/><stop offset="0.25" stop-color="#e7e7e7"/><stop offset="0.43" stop-color="#cfcfcf"/><stop offset="0.67" stop-color="#a8a8a8"/><stop offset="0.95" stop-color="#717171"/><stop offset="1" stop-color="#666"/></linearGradient><linearGradient id="linear-gradient-5" x1="498.53" y1="793.5" x2="498.53" y2="748.17" gradientUnits="userSpaceOnUse"><stop offset="0" stop-color="#f0f0f0"/><stop offset="0.12" stop-color="#e2e2e2"/><stop offset="0.33" stop-color="#bebebe"/><stop offset="0.63" stop-color="#838383"/><stop offset="0.99" stop-color="#323232"/><stop offset="1" stop-color="#303030"/></linearGradient><linearGradient id="linear-gradient-6" x1="498.53" y1="51.43" x2="498.53" y2="-5.17" gradientUnits="userSpaceOnUse"><stop offset="0" stop-color="#303030"/><stop offset="0.08" stop-color="#4c4c4c"/><stop offset="0.26" stop-color="#828282"/><stop offset="0.43" stop-color="#afafaf"/><stop offset="0.59" stop-color="#d2d2d2"/><stop offset="0.75" stop-color="#ebebeb"/><stop offset="0.89" stop-color="#fafafa"/><stop offset="1" stop-color="#fff"/></linearGradient><linearGradient id="linear-gradient-7" x1="669.7" y1="401.03" x2="683.48" y2="401.03" gradientUnits="userSpaceOnUse"><stop offset="0" stop-color="#f0f0f0"/><stop offset="0.01" stop-color="#ededed"/><stop offset="0.14" stop-color="#b4b4b4"/><stop offset="0.27" stop-color="#858585"/><stop offset="0.4" stop-color="#606060"/><stop offset="0.51" stop-color="#464646"/><stop offset="0.62" stop-color="#363636"/><stop offset="0.7" stop-color="#303030"/></linearGradient><linearGradient id="linear-gradient-8" x1="321.48" y1="763.44" x2="675.58" y2="763.44" gradientUnits="userSpaceOnUse"><stop offset="0"/><stop offset="0.1" stop-color="#121212"/><stop offset="0.25" stop-color="#2a2a2a"/><stop offset="0.4" stop-color="#393939"/><stop offset="0.52" stop-color="#3e3e3e"/><stop offset="0.63" stop-color="#373737"/><stop offset="0.8" stop-color="#222"/><stop offset="1"/><stop offset="1"/></linearGradient><linearGradient id="linear-gradient-9" x1="321.48" y1="38.66" x2="683.51" y2="38.66" xlink:href="#linear-gradient-8"/><linearGradient id="linear-gradient-10" x1="313.56" y1="400.79" x2="321.74" y2="400.79" gradientUnits="userSpaceOnUse"><stop offset="0" stop-color="#3e3e3e"/><stop offset="0.03" stop-color="#3c3c3c"/><stop offset="0.67" stop-color="#131313"/><stop offset="1" stop-color="#030303"/></linearGradient><linearGradient id="linear-gradient-11" x1="669.66" y1="401.07" x2="683.48" y2="401.07" gradientUnits="userSpaceOnUse"><stop offset="0" stop-color="#030303"/><stop offset="0.33" stop-color="#131313"/><stop offset="0.97" stop-color="#3c3c3c"/><stop offset="1" stop-color="#3e3e3e"/></linearGradient><linearGradient id="linear-gradient-12" x1="474.64" y1="36.78" x2="520.02" y2="36.78" gradientUnits="userSpaceOnUse"><stop offset="0" stop-color="#303030"/><stop offset="0.12" stop-color="#242424"/><stop offset="0.3" stop-color="#171717"/><stop offset="0.48" stop-color="#131313"/><stop offset="0.78" stop-color="#151515"/><stop offset="0.89" stop-color="#1c1c1c"/><stop offset="0.96" stop-color="#272727"/><stop offset="1" stop-color="#303030"/></linearGradient><linearGradient id="linear-gradient-13" x1="236.81" y1="139.08" x2="760.25" y2="662.52" gradientUnits="userSpaceOnUse"><stop offset="0" stop-color="#f1f2f3"/><stop offset="0.36" stop-color="#ecedee"/><stop offset="0.8" stop-color="#dedfdf"/><stop offset="1" stop-color="#d5d6d6"/></linearGradient><filter id="luminosity-noclip-3" x="322.95" y="-5" width="360.29" height="763.49" filterUnits="userSpaceOnUse" color-interpolation-filters="sRGB"><feFlood flood-color="#fff" result="bg"/><feBlend in="SourceGraphic" in2="bg"/></filter><mask id="mask-3" x="322.95" y="-5" width="360.29" height="763.49" maskUnits="userSpaceOnUse"><g class="cls-1"><path class="cls-2" d="M323,729.26a.17.17,0,0,0-.05-.14c.05,0,.05.1.1.14Zm7.53,12.59c.05,0,.05,0,.1,0l.29.38C330.77,742.14,330.68,742,330.53,741.85Zm18.26,13.49.53.15c.05,0,.09,0,.14.09A3.1,3.1,0,0,0,348.79,755.34Zm307.71,3.15a0,0,0,0,0,0,0,1.51,1.51,0,0,0,.47-.05C656.83,758.44,656.69,758.44,656.5,758.49ZM681.91-4.76a1,1,0,0,0-.19-.24,5.68,5.68,0,0,0,.52.48A.81.81,0,0,0,681.91-4.76Zm.62,751.14c.14-.14.24-.29.38-.43a2.74,2.74,0,0,1,.33-.29A8.08,8.08,0,0,1,682.53,746.38Z"/></g></mask><linearGradient id="linear-gradient-14" x1="503.1" y1="758.49" x2="503.1" y2="-5" gradientUnits="userSpaceOnUse"><stop offset="0" stop-color="#fff"/><stop offset="0.85" stop-color="#fff"/><stop offset="1" stop-color="#fff"/></linearGradient><filter id="luminosity-noclip-4" x="303.19" y="6.67" width="393.62" height="788.33" filterUnits="userSpaceOnUse" color-interpolation-filters="sRGB"><feFlood flood-color="#fff" result="bg"/><feBlend in="SourceGraphic" in2="bg"/></filter><mask id="mask-4" x="303.19" y="6.67" width="393.62" height="788.33" maskUnits="userSpaceOnUse"><g class="cls-3"><path class="cls-4" d="M696.28,189.13a1.54,1.54,0,0,0-.95-.38,1.48,1.48,0,0,0-1.48,1.47V59.83A53.15,53.15,0,0,0,640.69,6.67H620.81L303.19,324.29V741.84A53.15,53.15,0,0,0,356.35,795H640.69a53.15,53.15,0,0,0,53.16-53.16v-464a1.48,1.48,0,0,0,1.48,1.47,1.3,1.3,0,0,0,.95-.38,1.4,1.4,0,0,0,.53-1.09V190.22A1.4,1.4,0,0,0,696.28,189.13Z"/></g></mask><linearGradient id="linear-gradient-15" x1="500" y1="795" x2="500" y2="6.67" gradientUnits="userSpaceOnUse"><stop offset="0.2" stop-color="#fff"/><stop offset="0.89" stop-color="#fff"/><stop offset="1" stop-color="#fff"/></linearGradient></defs><title>Artboard 3</title><path class="cls-5" d="M640.7,6.67H356.35a53.14,53.14,0,0,0-53.14,53.14v682A53.14,53.14,0,0,0,356.35,795H640.7a53.14,53.14,0,0,0,53.14-53.14v-682A53.14,53.14,0,0,0,640.7,6.67Zm51.66,730.24a51.43,51.43,0,0,1-2.49,15.87c-.12.38-.25.77-.39,1.14s-.26.76-.41,1.14-.21.57-.33.85c-.33.83-.69,1.66-1.06,2.48l-.51,1.09-.76,1.49c-.17.33-.35.66-.54,1s-.38.69-.59,1c-.55.94-1.14,1.88-1.76,2.8l-.61.87c-.22.32-.45.64-.7,1s-.46.64-.71.95-.48.62-.74.93-.5.61-.77.92c-.5.6-1,1.19-1.57,1.76-.83.89-1.69,1.75-2.59,2.59-.27.24-.53.49-.81.73-.62.55-1.25,1.08-1.89,1.61l-.85.67c-.94.72-1.9,1.42-2.89,2.08-.33.22-.66.44-1,.65q-1,.64-2,1.23c-.34.21-.68.39-1,.57-1.12.61-2.25,1.19-3.42,1.7-.3.15-.61.28-.92.4s-.73.32-1.1.47l-1.12.43c-.84.32-1.69.61-2.55.88l-.91.28c-1.12.33-2.28.63-3.44.88l-1.22.26c-.43.09-.86.17-1.31.24-.79.13-1.6.25-2.42.35h0l-.47,0a2,2,0,0,1-.34,0h-.14c.73-.08,1.45-.18,2.17-.3l1.08-.18,1-.21c1.07-.22,2.11-.48,3.15-.77.34-.09.69-.2,1-.31.68-.2,1.35-.43,2-.67,1-.36,2-.76,3-1.18.32-.13.65-.28,1-.43l.95-.46c.63-.31,1.25-.64,1.87-1s1.22-.69,1.82-1.06,1.08-.68,1.61-1l.16-.1c.86-.6,1.71-1.21,2.54-1.85.28-.21.55-.42.82-.65.77-.62,1.52-1.27,2.25-1.94a47.9,47.9,0,0,0,5-5.39c.22-.27.43-.55.64-.83a46.67,46.67,0,0,0,5.53-9.41c.23-.53.46-1.08.67-1.63a46,46,0,0,0,2.4-8.29c.11-.56.21-1.14.3-1.71a48.41,48.41,0,0,0,.53-7.07v-682a46.81,46.81,0,0,0-41.78-46.48l-1.26-.11-1.28-.08h0c-.8,0-1.59-.06-2.4-.06H356.36q-1.22,0-2.4.06h0a46.8,46.8,0,0,0-44.31,46.67v682a46.79,46.79,0,0,0,41.48,46.44l-1-.09h0c-.82-.1-1.63-.22-2.42-.35a51.42,51.42,0,0,1-13.83-4.43L333,783c-.77-.4-1.53-.81-2.28-1.24l-1-.6a51.11,51.11,0,0,1-4.89-3.37c-.29-.21-.56-.43-.84-.66-.83-.67-1.64-1.36-2.42-2.07-.25-.23-.51-.47-.75-.72s-.59-.55-.87-.84l-.84-.85c-.19-.19-.37-.38-.54-.58s-.46-.49-.67-.74a49.82,49.82,0,0,1-3.7-4.64l-.61-.87c-.62-.91-1.2-1.84-1.75-2.78-.21-.34-.41-.68-.59-1a50.63,50.63,0,0,1-3.62-8.05q-.21-.57-.39-1.14a54.11,54.11,0,0,1-1.53-5.92c-.08-.41-.15-.81-.22-1.21a51.55,51.55,0,0,1-.74-8.74V59.81c0-.51,0-1,0-1.52s0-.76,0-1.13c0-.83.09-1.65.18-2.47,0-.42.09-.85.14-1.26l.09-.67q0-.4.12-.81c.06-.43.13-.85.21-1.27.12-.74.27-1.47.44-2.19.08-.37.17-.72.26-1.08.25-1.07.55-2.12.88-3.17l.33-1c.14-.41.27-.81.42-1.21s.25-.66.38-1l.32-.81c.13-.33.27-.65.41-1s.2-.48.32-.72.32-.7.5-1c.28-.61.59-1.23.91-1.83.16-.3.33-.61.51-.92s.39-.71.6-1.05a52.13,52.13,0,0,1,4.86-6.92l.78-.91c.3-.34.59-.68.91-1,.51-.55,1-1.09,1.56-1.62s1.15-1.12,1.74-1.66,1.21-1.07,1.83-1.58c.3-.26.62-.51.94-.76.63-.5,1.27-1,1.93-1.45s1.31-.92,2-1.36,1.36-.86,2.06-1.27l1.06-.6c.35-.2.71-.38,1.06-.57s.72-.38,1.09-.55l1.1-.54c.73-.33,1.48-.66,2.24-1l1.09-.44.1,0,1.1-.4,1.1-.37c.41-.13.83-.27,1.25-.39l1.18-.34L344,9.66l1.21-.29c.82-.18,1.64-.34,2.47-.48l1.23-.2c.89-.13,1.79-.23,2.68-.31.71-.07,1.43-.12,2.15-.16L355,8.17l1.33,0H640.7l1.33,0,1.11,0c.84,0,1.67.1,2.5.18h0l1.25.13,1.25.17,1.24.2,1.23.23h0l1.21.25,1.1.25.24.06,1,.28c.48.12,1,.26,1.44.41l1,.31c.72.23,1.43.48,2.15.75.48.16,1,.35,1.42.55l1,.43,1.12.5,1.09.53a49.39,49.39,0,0,1,7.4,4.45c.29.19.57.4.85.62q1.53,1.15,3,2.4c.42.37.84.74,1.24,1.13A50.57,50.57,0,0,1,680.57,27c.26.32.51.62.76.94.52.66,1,1.32,1.49,2,.24.34.48.68.71,1,.4.58.78,1.18,1.16,1.78l.55.92c.34.58.67,1.16,1,1.77.16.28.31.57.45.86.53,1,1,2,1.45,3,.11.27.23.53.34.81.42,1,.82,2.07,1.17,3.13q.21.59.39,1.17a51,51,0,0,1,1.65,7c0,.24.08.5.12.77s.12.82.17,1.24.1.84.14,1.26.08.85.12,1.27c0,.78.08,1.56.1,2.35,0,.5,0,1,0,1.51Z"/><path class="cls-6" d="M351.4,788.32l-1.25-.13h0c-.82-.1-1.63-.22-2.42-.35a51.42,51.42,0,0,1-13.83-4.43L333,783c-.77-.4-1.53-.81-2.28-1.24l-1-.6a51.11,51.11,0,0,1-4.89-3.37c-.29-.21-.56-.43-.84-.66-.83-.67-1.64-1.36-2.42-2.07-.25-.23-.51-.47-.75-.72s-.59-.55-.87-.84l-.84-.85c-.19-.19-.37-.38-.54-.58s-.46-.49-.67-.74a49.82,49.82,0,0,1-3.7-4.64l-.61-.87c-.62-.91-1.2-1.84-1.75-2.78-.21-.34-.41-.68-.59-1a50.63,50.63,0,0,1-3.62-8.05q-.21-.57-.39-1.14a54.11,54.11,0,0,1-1.53-5.92c-.08-.41-.15-.81-.22-1.21a51.55,51.55,0,0,1-.74-8.74V64.74a51.73,51.73,0,0,1,49.24-51.6,46.8,46.8,0,0,0-44.31,46.67v682A46.81,46.81,0,0,0,351.4,788.32Z"/><path class="cls-7" d="M692.36,64.74V736.91a51.43,51.43,0,0,1-2.49,15.87c-.12.38-.25.77-.39,1.14s-.26.76-.41,1.14-.21.57-.33.85c-.33.83-.69,1.66-1.06,2.48l-.51,1.09-.76,1.49c-.17.33-.35.66-.54,1s-.38.69-.59,1c-.55.94-1.14,1.88-1.76,2.8l-.61.87c-.22.32-.46.64-.7,1s-.47.65-.71.95-.49.62-.74.93-.5.61-.77.92c-.51.6-1,1.19-1.57,1.76-.83.89-1.69,1.75-2.59,2.59-.27.23-.53.48-.81.73-.62.55-1.25,1.08-1.89,1.61l-.85.67c-.94.72-1.9,1.42-2.89,2.08l-1,.65q-1,.64-2,1.23c-.33.2-.68.39-1,.57-1.12.61-2.25,1.19-3.42,1.7-.3.15-.61.28-.92.4s-.73.32-1.1.47l-1.12.43c-.84.32-1.69.61-2.55.88l-.91.28c-1.12.33-2.28.63-3.44.88l-1.22.26c-.43.09-.86.17-1.31.24-.8.13-1.61.25-2.42.35h0l-1.24.13a46.82,46.82,0,0,0,41.78-46.48v-682a46.8,46.8,0,0,0-43-46.59A51.71,51.71,0,0,1,692.36,64.74Z"/><path class="cls-8" d="M692.36,736.91v4.93A51.71,51.71,0,0,1,640.7,793.5H356.36a51.72,51.72,0,0,1-51.67-51.66v-4.93a51.55,51.55,0,0,0,.74,8.74c.07.4.14.8.22,1.21a54.11,54.11,0,0,0,1.53,5.92q.18.57.39,1.14a50.63,50.63,0,0,0,3.62,8.05c.18.35.38.69.59,1,.55.94,1.13,1.87,1.75,2.78l.61.87a49.82,49.82,0,0,0,3.7,4.64c.21.25.44.5.67.74s.35.39.54.58l.84.85q.42.43.87.84c.24.25.5.49.75.72.78.71,1.59,1.4,2.42,2.07.28.23.55.45.84.66a51.11,51.11,0,0,0,4.89,3.37l1,.6c.75.43,1.51.84,2.28,1.24l.91.45a51.42,51.42,0,0,0,13.83,4.43c.79.13,1.6.25,2.42.35h0c.83.1,1.66.18,2.5.24l1.28.08q1.2.06,2.43.06H640.7c.81,0,1.61,0,2.41-.06l1.28-.08c.68,0,1.35-.11,2-.19l.47,0h0c.82-.1,1.63-.22,2.42-.35.45-.07.88-.15,1.31-.24l1.22-.26c1.16-.25,2.32-.55,3.44-.88l.91-.28c.86-.27,1.71-.56,2.55-.88l1.12-.43c.37-.15.74-.3,1.1-.47s.62-.25.92-.4c1.17-.51,2.3-1.09,3.42-1.7.34-.18.68-.36,1-.57q1-.59,2-1.23c.34-.21.67-.43,1-.65,1-.66,2-1.36,2.89-2.08l.85-.67c.64-.53,1.27-1.06,1.89-1.61.28-.24.54-.49.81-.73.9-.84,1.76-1.7,2.59-2.59.54-.57,1.07-1.16,1.57-1.76.27-.31.53-.62.77-.92s.51-.61.74-.93.49-.63.71-.95.48-.63.7-1l.61-.87c.62-.92,1.21-1.86,1.76-2.8.21-.35.41-.69.59-1s.37-.65.54-1l.76-1.49c.17-.36.35-.72.51-1.09.37-.82.73-1.65,1.06-2.48.12-.28.23-.57.33-.85s.29-.75.41-1.14.27-.76.39-1.14A51.43,51.43,0,0,0,692.36,736.91Z"/><path class="cls-9" d="M692.36,59.81v4.93a51.7,51.7,0,0,0-46.71-51.41l-1.26-.11-1.28-.08h0c-.8,0-1.59-.06-2.4-.06H356.36q-1.22,0-2.4.06h0a51.73,51.73,0,0,0-49.24,51.6V59.81c0-.51,0-1,0-1.52s0-.76,0-1.13c0-.83.09-1.65.18-2.47,0-.42.09-.85.14-1.26l.09-.67q0-.4.12-.81c.06-.43.13-.85.21-1.27.12-.74.27-1.47.44-2.19.08-.37.17-.72.26-1.08.25-1.07.55-2.12.88-3.17l.33-1c.14-.41.27-.81.42-1.21s.25-.66.38-1l.32-.81c.13-.33.27-.65.41-1s.2-.48.32-.72.32-.7.5-1c.28-.61.59-1.23.91-1.83.16-.3.33-.61.51-.92s.39-.71.6-1.05a52.13,52.13,0,0,1,4.86-6.92l.78-.91c.3-.34.59-.68.91-1,.51-.55,1-1.09,1.56-1.62s1.15-1.12,1.74-1.66,1.21-1.07,1.83-1.58c.3-.26.62-.51.94-.76.63-.5,1.27-1,1.93-1.45s1.31-.92,2-1.36,1.36-.86,2.06-1.27l1.06-.6c.35-.2.71-.38,1.06-.57s.72-.38,1.09-.55l1.1-.54c.73-.33,1.48-.66,2.24-1l1.09-.44.1,0,1.1-.4,1.1-.37c.41-.13.83-.27,1.25-.39l1.18-.34L344,9.66l1.21-.29c.82-.18,1.64-.34,2.47-.48l1.23-.2c.89-.13,1.79-.23,2.68-.31.71-.07,1.43-.12,2.15-.16L355,8.17l1.33,0H640.7l1.33,0,1.11,0c.84,0,1.67.1,2.5.18h0l1.25.13,1.25.17,1.24.2,1.23.23h0l1.21.25,1.1.25.24.06,1,.28c.48.12,1,.26,1.44.41l1,.31c.72.23,1.43.48,2.15.75.48.16,1,.35,1.42.55l1,.43,1.12.5,1.09.53a49.39,49.39,0,0,1,7.4,4.45c.29.19.57.4.85.62q1.53,1.15,3,2.4c.42.37.84.74,1.24,1.13A50.57,50.57,0,0,1,680.57,27c.26.32.51.62.76.94.52.66,1,1.32,1.49,2,.24.34.48.68.71,1,.4.58.78,1.18,1.16,1.78l.55.92c.34.58.67,1.16,1,1.77.16.28.31.57.45.86.53,1,1,2,1.45,3,.11.27.23.53.34.81.42,1,.82,2.07,1.17,3.13q.21.59.39,1.17a51,51,0,0,1,1.65,7c0,.24.08.5.12.77s.12.82.17,1.24.1.84.14,1.26.08.85.12,1.27c0,.78.08,1.56.1,2.35C692.35,58.8,692.36,59.31,692.36,59.81Z"/><path class="cls-10" d="M643.11,13.14h0q-1.19-.06-2.4-.06H356.36q-1.22,0-2.4.06h0a46.8,46.8,0,0,0-44.31,46.67v682a46.8,46.8,0,0,0,43,46.59l1.28.08q1.2.06,2.43.06H640.7c.81,0,1.61,0,2.41-.06l1.28-.08a46.81,46.81,0,0,0,43-46.59v-682A46.79,46.79,0,0,0,643.11,13.14Zm40.38,728.7a43,43,0,0,1-39.37,42.65c-.4,0-.8.06-1.21.07-.73,0-1.47.06-2.21.06H356.36c-.75,0-1.5,0-2.24-.06-.4,0-.8,0-1.17-.07a43,43,0,0,1-39.39-42.65v-682A42.76,42.76,0,0,1,354,17.09h.12c.72,0,1.46,0,2.2,0H640.7c.74,0,1.48,0,2.2,0H643a42.75,42.75,0,0,1,40.52,42.72Z"/><path class="cls-11" d="M683.48,60.09v682a42.34,42.34,0,0,1-5.6,21c-.32.57-.67,1.13-1,1.68-.54.83-1.09,1.64-1.66,2.43a44.18,44.18,0,0,1-5.5,6.17,44.51,44.51,0,0,0,5.87-22.11v-7.86q0-.71,0-1.41V60q0-.74,0-1.44v-7.7a44.73,44.73,0,0,0-5.88-22.26A42.71,42.71,0,0,1,683.48,60.09Z"/><path d="M642.77,21h-.19c-.62,0-1.24,0-1.87,0H356.35c-.64,0-1.29,0-1.92,0l-.19,0h-.09a38.82,38.82,0,0,0-36.64,38.77v682a39,39,0,0,0,35.77,38.73c.29,0,.62.05.94.06h.11c.67,0,1.35.06,2,.06H640.71c.66,0,1.33,0,2-.06h.12c.33,0,.67,0,1-.07a39,39,0,0,0,35.73-38.72v-682A38.83,38.83,0,0,0,642.77,21Zm26.41,720.82a28.35,28.35,0,0,1-5.91,17.31c-.2.26-.4.51-.61.76a29.11,29.11,0,0,1-2,2.17c-.61.6-1.25,1.19-1.92,1.74h0a28,28,0,0,1-2.64,1.94,28.56,28.56,0,0,1-2.84,1.63h0q-.74.38-1.5.69h0c-.5.22-1,.42-1.54.6a28.27,28.27,0,0,1-3.21.94,29.56,29.56,0,0,1-4,.61l-.38,0h-.18l-.12,0h-.14l-.35,0H355.62l-.75,0h-.1l-.11,0h-.18l-.39,0a28.61,28.61,0,0,1-26.22-28.39v-682a28.49,28.49,0,0,1,26.59-28.42h.25l.39,0c.46,0,.87,0,1.25,0H640.69c.39,0,.81,0,1.26,0h.27l.29,0c.28,0,.55,0,.82.07a2.43,2.43,0,0,1,.38,0l.74.09a8.48,8.48,0,0,1,.88.13h0c.43.06.85.14,1.27.23l.24.05c.35.07.69.16,1,.25.49.14,1,.28,1.49.44s.79.25,1.18.4.83.32,1.24.5a23,23,0,0,1,2.4,1.15A24.09,24.09,0,0,1,656.3,36l.46.3.81.58c.36.25.7.52,1,.8.68.56,1.34,1.13,2,1.75a11.52,11.52,0,0,1,.92.93l.87,1a27.44,27.44,0,0,1,3,4.29c.44.76.84,1.55,1.21,2.35s.7,1.62,1,2.47c.15.42.28.84.41,1.27.27.93.5,1.86.68,2.83.07.38.14.75.19,1.14a28.32,28.32,0,0,1,.3,4.14Z"/><path d="M403.9,44.46c-.1-.19-.18-.38-.27-.57a1.43,1.43,0,0,0-.08-.22C403.67,43.94,403.78,44.2,403.9,44.46Z"/><path d="M593.5,43.67a1.43,1.43,0,0,0-.08.22c-.09.19-.17.38-.27.57C593.27,44.2,593.38,43.94,593.5,43.67Z"/><path d="M423,57.66l.93.05h-.52a4.91,4.91,0,0,1-.55,0l-.6,0a.07.07,0,0,1-.06,0Z"/><path d="M574.84,57.6a.07.07,0,0,1-.06,0l-.6,0a5.09,5.09,0,0,1-.55,0h-.52l.93-.05Z"/><path d="M403.24,42.85l0,0c0-.1-.07-.2-.1-.3C403.16,42.62,403.19,42.73,403.24,42.85Z"/><path d="M403.9,44.46c-.1-.19-.18-.38-.27-.57a1.43,1.43,0,0,0-.08-.22C403.67,43.94,403.78,44.2,403.9,44.46Z"/><path d="M406.69,49c-.1-.12-.2-.24-.29-.37l.06.06Z"/><path d="M407.57,50.09a4.13,4.13,0,0,1-.34-.39,1.3,1.3,0,0,1-.19-.22h0C407.22,49.68,407.39,49.89,407.57,50.09Z"/><path d="M408,50.55a2.77,2.77,0,0,1-.24-.25h0A1.84,1.84,0,0,0,408,50.55Z"/><path d="M410.64,53c-.18-.12-.36-.27-.53-.41a2.07,2.07,0,0,1-.32-.28,2.31,2.31,0,0,1-.24-.2c.18.16.37.32.56.46S410.46,52.82,410.64,53Z"/><path d="M411,53.21a3.47,3.47,0,0,0,.38.29l-.11-.07Z"/><path d="M412.56,54.3l-.38-.23h0l-.23-.17C412.13,54,412.35,54.18,412.56,54.3Z"/><path d="M416.81,56.37c-.3-.1-.58-.2-.88-.33a.85.85,0,0,1-.17-.08C416.12,56.11,416.46,56.25,416.81,56.37Z"/><path d="M417.78,56.7c.36.11.71.21,1.08.3-.24,0-.49-.12-.73-.19l-.35-.1a4.5,4.5,0,0,1-.48-.16,3.54,3.54,0,0,1-.49-.18C417.13,56.48,417.45,56.6,417.78,56.7Z"/><path d="M421.07,57.46l.94.12a8,8,0,0,1-.84-.1h-.1l-.37-.07c-.25,0-.5-.08-.75-.13l-.94-.22a.53.53,0,0,1-.15,0C419.58,57.19,420.33,57.34,421.07,57.46Z"/><path d="M423,57.66h-.35l-.39,0a.07.07,0,0,1-.06,0Z"/><path d="M572.82,57.72h0Z"/><path d="M574,57.66l.8-.06a.07.07,0,0,1-.06,0l-.39,0H574Z"/><path d="M576,57.46c.74-.12,1.49-.27,2.21-.46a.53.53,0,0,1-.15,0l-.94.22c-.25,0-.5.1-.75.13l-.37.07h-.11a7.53,7.53,0,0,1-.83.1Z"/><path d="M580.24,56.37a4.09,4.09,0,0,1-.49.18,4.5,4.5,0,0,1-.48.16l-.35.1c-.24.07-.49.14-.73.19.37-.09.72-.19,1.08-.3S579.92,56.48,580.24,56.37Z"/><path d="M580.24,56.37c.35-.12.69-.26,1-.41a.53.53,0,0,1-.17.08A9.14,9.14,0,0,1,580.24,56.37Z"/><path d="M584.49,54.3c.21-.12.43-.27.64-.41l-.24.17h0Z"/><path d="M586.08,53.21l-.27.22-.11.07A3.47,3.47,0,0,0,586.08,53.21Z"/><path d="M587.5,52.07a2.31,2.31,0,0,1-.24.2,2.07,2.07,0,0,1-.32.28c-.17.14-.35.29-.53.41.18-.14.36-.28.53-.43S587.32,52.23,587.5,52.07Z"/><path d="M589.3,50.3a2.77,2.77,0,0,1-.24.25,1.84,1.84,0,0,0,.23-.25Z"/><path d="M590,49.48a2,2,0,0,1-.19.22.85.85,0,0,1-.16.17l.34-.39Z"/><path d="M590.64,48.67c-.09.13-.18.25-.28.37l.23-.31A.1.1,0,0,0,590.64,48.67Z"/><path d="M593.5,43.67a1.43,1.43,0,0,0-.08.22c-.09.19-.17.38-.27.57C593.27,44.2,593.38,43.94,593.5,43.67Z"/><path d="M593.94,42.51c0,.1-.07.2-.1.3s0,0,0,0S593.89,42.62,593.94,42.51Z"/><path class="cls-12" d="M675.58,743.46v7.86a44.51,44.51,0,0,1-5.87,22.11,42.53,42.53,0,0,1-25.57,11.27c-.4,0-.8.06-1.21.07-.73,0-1.47.06-2.21.06H356.38c-.75,0-1.5,0-2.24-.06-.4,0-.8,0-1.17-.07-.54,0-1.08-.1-1.62-.17a42.46,42.46,0,0,1-24-11.09,44.51,44.51,0,0,1-5.92-22.19v-9.2a34.91,34.91,0,0,0,12.28,26.5,34.51,34.51,0,0,0,19.83,8.28c.25,0,.5,0,.74,0h.22c.6,0,1.22.05,1.83.05H640.72c.59,0,1.2,0,1.79-.05h.23c.27,0,.54,0,.8,0A35,35,0,0,0,675.58,743.46Z"/><path class="cls-13" d="M683.48,60.09l0-.07A42.76,42.76,0,0,0,643,17.29h-.07c-.72,0-1.46,0-2.2,0H356.38c-.74,0-1.48,0-2.2,0h-.12c-.93.05-1.84.13-2.74.24a42.67,42.67,0,0,0-24,11,44.75,44.75,0,0,0-5.88,22.26V60a34.87,34.87,0,0,1,32.81-34.83h.18l.26,0,1.65,0H640.72l1.49,0h0l.36,0a34.85,34.85,0,0,1,33,33.4v-7.7a44.73,44.73,0,0,0-5.88-22.26A42.71,42.71,0,0,1,683.48,60.09Z"/><path class="cls-14" d="M327.38,773.24a42.82,42.82,0,0,1-13.82-31.4v-682a42.7,42.7,0,0,1,13.79-31.47,44.67,44.67,0,0,0-5.89,22.27V751A44.55,44.55,0,0,0,327.38,773.24Z"/><path class="cls-15" d="M683.48,60.09v682a42.34,42.34,0,0,1-5.6,21c-.32.57-.67,1.13-1,1.68-.52.83-1.07,1.64-1.66,2.43a42.27,42.27,0,0,1-5.55,6.25l.05-.08a44.51,44.51,0,0,0,5.87-22.11V50.88a44.73,44.73,0,0,0-5.88-22.26A42.71,42.71,0,0,1,683.48,60.09Z"/><rect class="cls-16" x="474.64" y="34.4" width="45.38" height="4.77" rx="0.33"/><path class="cls-17" d="M599.67,31.34h41c.39,0,.81,0,1.26,0h.14l.25,0h.24c.25,0,.5,0,.75.07a2.43,2.43,0,0,1,.38,0l.74.09c.3,0,.59.07.88.13h0l1.27.23.24.05,1,.25c.49.14,1,.28,1.49.44l1.18.4,1.24.5c.82.35,1.62.73,2.4,1.15s1.4.79,2.07,1.24l.46.3.81.58,1,.8c.68.56,1.34,1.13,2,1.75.32.3.62.62.92.93l.87,1a29.36,29.36,0,0,1,3,4.29c.44.76.84,1.55,1.21,2.35s.7,1.62,1,2.47c.15.42.28.84.41,1.27.27.93.5,1.86.68,2.83.07.37.13.75.19,1.14a28.32,28.32,0,0,1,.3,4.14v682a28.35,28.35,0,0,1-5.91,17.31c-.2.26-.4.51-.61.76-.63.76-1.29,1.48-2,2.17s-1.25,1.19-1.92,1.74h0a28,28,0,0,1-2.64,1.94,31.68,31.68,0,0,1-2.84,1.63h0c-.49.24-1,.46-1.5.69h0c-.5.22-1,.41-1.54.6a30.48,30.48,0,0,1-3.21.94,29.56,29.56,0,0,1-4,.61l-.38,0h-.1l-.08,0H355.62l-.75,0h-.22l-.08,0h-.09l-.39,0a28.61,28.61,0,0,1-26.22-28.39v-682a28.49,28.49,0,0,1,26.59-28.42h.25l.39,0c.46,0,.87,0,1.25,0h41"/><g class="cls-18"><path class="cls-19" d="M323,729.26a.17.17,0,0,0-.05-.14c.05,0,.05.1.1.14Zm7.53,12.59c.05,0,.05,0,.1,0l.29.38C330.77,742.14,330.68,742,330.53,741.85Zm18.26,13.49.53.15c.05,0,.09,0,.14.09A3.1,3.1,0,0,0,348.79,755.34Zm307.71,3.15a0,0,0,0,0,0,0,1.51,1.51,0,0,0,.47-.05C656.83,758.44,656.69,758.44,656.5,758.49ZM681.91-4.76a1,1,0,0,0-.19-.24,5.68,5.68,0,0,0,.52.48A.81.81,0,0,0,681.91-4.76Zm.62,751.14c.14-.14.24-.29.38-.43a2.74,2.74,0,0,1,.33-.29A8.08,8.08,0,0,1,682.53,746.38Z"/></g><g class="cls-20"><path class="cls-21" d="M696.28,189.13a1.54,1.54,0,0,0-.95-.38,1.48,1.48,0,0,0-1.48,1.47V59.83A53.15,53.15,0,0,0,640.69,6.67H620.81L303.19,324.29V741.84A53.15,53.15,0,0,0,356.35,795H640.69a53.15,53.15,0,0,0,53.16-53.16v-464a1.48,1.48,0,0,0,1.48,1.47,1.3,1.3,0,0,0,.95-.38,1.4,1.4,0,0,0,.53-1.09V190.22A1.4,1.4,0,0,0,696.28,189.13Z"/></g></svg>