<svg viewBox="0 0 440 317" xmlns="http://www.w3.org/2000/svg"><g fill="none" fill-rule="evenodd" transform="translate(0 -17)"><path d="m0 0h440v352h-440z"/><path d="m427.64 17.423c5.8582 0 11.733 5.8582 11.733 11.733v292.49c0 5.8749-5.8749 11.75-11.733 11.75h-415.91c-5.8749 0-11.733-5.8749-11.733-11.75v-292.49c0-5.8749 5.8582-11.733 11.733-11.733zm-5.6448 31.266h-404v255h404z" fill="#000" fill-rule="nonzero"/><path d="m11.733 17.423c-5.8749 0-11.733 5.8582-11.733 11.733v292.49c0 5.8749 5.8582 11.75 11.733 11.75h415.91c5.8582 0 11.733-5.8749 11.733-11.75v-292.49c0-5.8749-5.8749-11.733-11.733-11.733z" stroke="#000" stroke-linejoin="round" stroke-width=".5"/><path d="m0 17.423h439.39v315.97h-439.39z"/><path d="m220.51 303.76h-202.408v-255.07h404.818v255.07z" stroke="#000" stroke-linejoin="round" stroke-width=".5"/></g></svg>